<svg version="1.1" id="Layer_1" xmlns="http://www.w3.org/2000/svg" xmlns:xlink="http://www.w3.org/1999/xlink" x="0px" y="0px"
	 width="100%" viewBox="0 0 1116 319" enable-background="new 0 0 1116 319" xml:space="preserve">
<path fill="#000102" opacity="1.000000" stroke="none" 
	d="
M719.000000,320.000000 
	C479.333344,320.000000 240.166672,320.000000 1.000000,320.000000 
	C1.000000,213.666672 1.000000,107.333336 1.000000,1.000000 
	C373.000000,1.000000 745.000000,1.000000 1117.000000,1.000000 
	C1117.000000,107.333336 1117.000000,213.666672 1117.000000,320.000000 
	C984.500000,320.000000 852.000000,320.000000 719.000000,320.000000 
M953.067017,180.951614 
	C953.040955,190.974655 952.978271,200.997910 953.032471,211.020523 
	C953.039673,212.355438 953.639832,213.687149 954.467163,215.590546 
	C955.877197,216.038162 957.344177,216.988312 958.686218,216.836212 
	C962.257507,216.431412 966.680725,218.728561 969.839050,213.589874 
	C969.890076,213.095032 969.985596,212.600174 969.985718,212.105316 
	C969.994080,158.895020 970.001526,105.684700 969.956238,52.474442 
	C969.955261,51.349194 969.343567,50.224468 968.335999,48.712410 
	C964.351868,46.195221 957.110046,46.288540 953.232239,49.344437 
	C953.173035,72.589424 953.113831,95.834419 952.977783,119.408340 
	C952.977783,119.408340 953.048035,119.738739 952.126099,119.962517 
	C924.757629,119.967934 897.389099,119.973358 869.999207,119.045708 
	C870.000122,97.696381 870.021484,76.346992 869.961975,54.997829 
	C869.957397,53.345810 869.384705,51.695374 868.710999,49.371861 
	C865.213562,46.211861 856.896790,45.946243 853.263367,49.391651 
	C853.179810,50.047523 853.023193,50.703377 853.023010,51.359272 
	C853.009399,104.717079 853.001648,158.074890 853.046082,211.432663 
	C853.047058,212.633804 853.650269,213.834457 854.472839,215.595627 
	C855.889648,216.043579 857.390747,217.037430 858.706909,216.834045 
	C862.230896,216.289474 866.724243,218.923355 869.833374,213.624817 
	C869.896118,187.428146 869.958862,161.231491 870.956055,135.057434 
	C898.248779,135.030563 925.541443,135.003677 952.974731,135.910126 
	C953.041016,150.614319 953.107239,165.318497 953.067017,180.951614 
M292.298218,79.150299 
	C283.954590,87.447037 270.444489,91.978943 256.001617,79.536896 
	C256.001617,81.471687 256.001617,83.290596 256.001587,85.109505 
	C256.001373,134.942505 256.069458,184.775726 255.916702,234.608246 
	C255.897003,241.037552 257.713104,246.139603 262.687805,250.209076 
	C268.886139,255.279495 275.987061,255.391251 282.656891,252.504471 
	C288.724518,249.878357 292.998688,244.742264 293.001892,237.513382 
	C293.025330,184.682205 292.962585,131.850983 293.640930,78.941208 
	C299.405426,85.661293 305.287964,92.287506 310.796417,99.211296 
	C311.548920,100.157166 311.088440,103.277115 310.086792,104.224319 
	C298.835388,114.864105 304.415344,134.121597 320.766907,136.829681 
	C328.389252,138.092041 337.253845,134.830215 341.805267,128.364182 
	C345.914032,122.527016 346.229279,114.823952 342.742889,109.172356 
	C337.864716,101.264496 330.818390,97.765823 321.588623,98.184875 
	C320.142731,98.250526 318.137787,97.687088 317.257233,96.667038 
	C310.355011,88.671402 303.591248,80.551735 296.988037,72.307518 
	C296.021332,71.100555 295.977722,69.051643 295.769714,67.360008 
	C295.270355,63.298489 295.869202,58.812004 294.325806,55.228886 
	C291.065063,47.658875 281.171570,42.177940 273.811981,43.063473 
	C265.125305,44.108677 257.249878,50.329758 255.598862,59.601990 
	C255.204132,61.818840 254.696701,64.272537 253.430817,66.035469 
	C245.472855,77.118156 237.285980,88.036476 229.923294,97.996567 
	C222.241531,97.387863 215.550308,96.857651 208.859070,96.327446 
	C207.467148,96.034904 206.112518,94.590050 204.755707,93.147224 
	C196.022568,83.860367 185.880692,75.950859 179.026794,64.822784 
	C174.823196,57.997738 167.497025,55.197723 159.688477,56.392746 
	C150.806320,57.752075 144.944397,63.095730 142.614853,72.262169 
	C141.899399,75.077423 139.625549,77.766937 137.450531,79.881737 
	C133.555969,83.668419 129.191437,86.971176 125.030174,90.484299 
	C121.829056,93.186806 118.837318,95.514229 115.097481,90.861862 
	C113.905319,89.378799 111.375046,88.785774 109.337845,88.200203 
	C101.150612,85.846855 94.185333,87.750664 88.317711,94.135315 
	C82.419174,100.553604 82.043709,107.855087 84.956398,115.348511 
	C87.763947,122.571419 94.325294,125.925507 101.388916,126.886154 
	C110.875008,128.176254 126.215698,119.081947 123.829559,104.339119 
	C123.149338,100.136368 125.017563,98.246368 127.545853,96.103386 
	C131.457977,92.787460 135.479218,89.594002 139.284744,86.160789 
	C141.719681,83.964088 143.143112,83.443596 145.517685,86.674667 
	C151.387375,94.661507 162.081100,97.754807 170.854645,93.258598 
	C175.819794,90.714104 179.613724,85.884178 184.138840,81.904503 
	C184.588562,82.320404 185.713120,83.301979 186.772110,84.349800 
	C191.629272,89.155647 196.427689,94.021713 201.333084,98.777573 
	C203.339630,100.722961 202.584061,102.054749 201.460480,104.325218 
	C199.472855,108.341721 196.941467,113.063210 197.434952,117.152046 
	C198.956268,129.756943 207.083954,135.672455 219.862473,135.025131 
	C232.276382,134.396271 242.047623,120.824585 236.755005,109.866768 
	C233.767288,103.681030 235.368469,100.285759 239.158966,96.235985 
	C240.166443,95.159622 240.815323,93.756165 241.704483,92.559082 
	C246.713226,85.815720 251.745056,79.089508 256.856781,72.239838 
	C265.696289,83.228561 278.706268,86.074089 292.170532,75.208092 
	C292.479248,76.684372 292.728943,77.878426 292.298218,79.150299 
M473.610168,47.232868 
	C460.624176,47.172390 447.638184,47.101017 434.652161,47.089813 
	C434.112396,47.089344 433.572205,47.651489 432.293304,48.052444 
	C428.716064,48.714802 427.625427,51.442265 427.090332,54.507450 
	C426.864075,55.803493 426.992950,57.164883 426.992828,58.496571 
	C426.989410,107.630043 426.988159,156.763519 426.991089,205.896988 
	C426.991577,214.384888 428.605408,215.988892 437.235931,216.012421 
	C446.229797,216.036957 455.225922,215.895279 464.217163,216.050781 
	C476.896149,216.270065 489.416718,215.419098 501.581146,211.507996 
	C521.903992,204.973846 536.335510,191.944000 544.042969,172.013733 
	C552.344116,150.548172 553.149597,128.282837 548.843628,105.942001 
	C545.440125,88.283104 536.587341,73.606750 522.121765,62.435326 
	C507.884521,51.440182 491.594269,47.772163 473.610168,47.232868 
M181.996307,198.500000 
	C181.996307,163.143967 181.996307,127.787949 181.996307,91.921478 
	C176.042816,96.589912 170.640213,100.032829 163.314438,100.111031 
	C155.933517,100.189804 150.347427,97.112839 144.954819,92.007355 
	C144.954819,145.281433 144.931381,197.924026 144.976883,250.566559 
	C144.984863,259.814972 153.524414,267.062103 164.035400,267.016693 
	C173.923676,266.973969 182.016968,259.342255 182.024307,249.979355 
	C182.037521,233.152924 182.007996,216.326447 181.996307,198.500000 
M797.677002,210.188141 
	C801.116882,207.634064 805.176697,205.607834 807.882996,202.429230 
	C816.835632,191.913971 820.713562,179.825150 819.190491,165.719070 
	C817.718079,152.082047 810.297913,142.228851 799.797180,135.261124 
	C788.935913,128.054153 776.625244,123.056183 765.085999,116.837067 
	C757.681091,112.846146 750.409241,108.781418 745.073364,101.720985 
	C738.306702,92.767296 739.653198,71.700554 751.055725,65.117836 
	C759.097412,60.475346 767.362915,59.248451 776.206238,59.926598 
	C786.052429,60.681652 794.677979,64.717766 802.795776,70.128014 
	C804.149170,71.029991 806.682007,71.915596 807.615112,71.274277 
	C808.935303,70.366966 809.616394,68.099846 809.972656,66.295876 
	C811.369507,59.221615 807.759705,54.956982 801.637146,52.251312 
	C789.859619,47.046608 777.766663,44.654354 764.698059,45.691433 
	C753.183594,46.605183 743.308716,50.840275 735.338623,58.434143 
	C718.954651,74.044769 720.219849,103.932434 737.877075,118.263062 
	C745.268982,124.262375 753.931458,128.758087 762.240234,133.548935 
	C770.988281,138.593063 780.343506,142.642792 788.826233,148.075165 
	C802.971619,157.133881 806.713135,172.401138 798.895142,187.146317 
	C791.588989,200.926208 778.042419,203.454346 764.590881,203.652084 
	C751.716187,203.841370 739.723633,198.813599 728.620483,192.128296 
	C726.450623,190.821777 724.023560,189.942429 721.828369,188.918869 
	C716.482239,197.057510 719.553040,206.021149 727.769714,209.509415 
	C742.243286,215.653854 756.905029,219.857697 772.829529,217.958817 
	C781.360107,216.941620 789.713989,215.461060 797.677002,210.188141 
M306.004303,209.500000 
	C305.998688,216.493454 306.009583,223.486969 305.983490,230.480347 
	C305.948181,239.943771 313.939331,247.372849 323.323914,248.184586 
	C333.709503,249.082901 343.269684,239.477982 343.131653,230.761047 
	C342.781128,208.620544 343.001953,186.470993 342.996155,164.325058 
	C342.993469,154.060928 342.995697,143.796814 342.995697,132.994766 
	C337.123657,137.474884 331.662201,141.098801 324.227203,141.129990 
	C316.868713,141.160843 311.345184,138.031265 306.004303,133.149124 
	C306.004303,158.565033 306.004303,183.532516 306.004303,209.500000 
M235.006287,198.235504 
	C235.006287,176.670364 235.006287,155.105240 235.006287,132.852585 
	C229.114517,137.657211 223.547318,141.061493 216.157074,141.129242 
	C208.859451,141.196106 203.377106,137.982056 197.994125,133.261337 
	C197.994125,155.220261 198.003036,176.693802 197.989929,198.167343 
	C197.984360,207.300980 205.472229,215.275406 213.983353,216.107376 
	C226.360916,217.317276 235.358215,207.793610 235.006287,198.235504 
M84.003212,149.500000 
	C84.003120,162.480026 83.893143,175.461700 84.085724,188.438858 
	C84.129906,191.416351 85.097572,194.408142 85.843430,197.341690 
	C87.742027,204.809113 97.579185,209.149063 105.687721,207.968704 
	C114.741104,206.650787 120.910316,199.134155 120.975342,189.539291 
	C121.064423,176.393448 120.997017,163.246536 120.996811,150.100082 
	C120.996681,141.875244 120.996788,133.650406 120.996788,124.677322 
	C115.318588,130.028976 109.554558,133.056000 102.301567,133.056351 
	C95.095215,133.056702 89.540176,129.572174 84.003212,125.021729 
	C84.003212,133.215820 84.003212,140.857925 84.003212,149.500000 
M1017.007812,84.500000 
	C1017.007812,126.281059 1016.997498,168.062134 1017.043701,209.843124 
	C1017.045654,211.598129 1017.292175,214.757690 1017.902283,214.879959 
	C1021.967896,215.694687 1026.215332,216.434799 1030.301514,216.066299 
	C1033.967041,215.735718 1033.009399,212.069611 1033.010864,209.541870 
	C1033.040649,157.939789 1033.033203,106.337700 1033.033081,54.735607 
	C1033.033081,53.903316 1033.006958,53.070286 1033.033203,52.238873 
	C1033.143188,48.760300 1031.561279,46.941986 1027.988037,47.008030 
	C1026.324097,47.038784 1024.634277,47.193508 1022.999023,46.973980 
	C1018.222168,46.332722 1016.895752,48.692844 1016.960388,53.038841 
	C1017.111450,63.190548 1017.008118,73.346039 1017.007812,84.500000 
M377.994141,211.500000 
	C377.994110,159.223846 378.011810,106.947670 377.929169,54.671658 
	C377.925842,52.583263 379.483002,49.192108 375.185303,49.057579 
	C370.498688,48.910877 372.068329,52.557457 372.065887,54.799633 
	C371.992249,122.392235 371.995758,189.984940 372.052429,257.577576 
	C372.054230,259.740936 370.754272,263.025391 375.063446,262.958466 
	C379.381073,262.891479 377.918762,259.571503 377.934631,257.450348 
	C378.046539,242.467606 377.994110,227.483597 377.994141,211.500000 
M908.785339,251.242844 
	C908.211060,248.472412 907.646118,245.699997 907.059692,242.932144 
	C906.592957,240.729630 906.723145,237.181519 905.489929,236.612808 
	C902.874329,235.406631 899.542236,235.754105 896.503906,235.464554 
	C896.457092,241.797333 895.804504,248.218689 896.710144,254.412186 
	C897.005066,256.429077 906.221252,254.644836 908.785339,251.242844 
M871.007080,238.684799 
	C871.254272,245.493729 866.683228,242.390610 863.953064,242.627289 
	C861.802124,240.308533 864.951965,235.483505 859.032043,235.302460 
	C859.032043,241.096359 858.958435,246.694092 859.109741,252.285706 
	C859.132996,253.145340 860.191833,253.976929 860.771729,254.821472 
	C861.505249,253.963623 862.477478,253.207443 862.899414,252.216858 
	C863.259705,251.371078 863.088867,250.244690 862.977478,249.262329 
	C862.613647,246.054672 863.889832,244.882004 867.189209,244.906250 
	C870.399475,244.929825 871.266296,246.305984 871.022461,249.140915 
	C870.923401,250.292648 870.777771,251.549850 871.132080,252.597046 
	C871.424927,253.462509 872.422180,254.089600 873.107300,254.822327 
	C873.715637,254.183502 874.834839,253.557571 874.851379,252.903778 
	C874.981140,247.763702 874.993408,242.614456 874.783203,237.478653 
	C874.751526,236.706299 873.376465,235.988953 872.622925,235.246155 
	C872.088013,236.108475 871.553040,236.970795 871.007080,238.684799 
M944.927429,250.174957 
	C945.209412,247.744232 946.021912,245.232895 945.667236,242.898926 
	C944.830872,237.395370 941.261108,234.880310 935.462036,235.023987 
	C931.299744,235.127106 927.549561,238.484253 927.176575,243.291092 
	C926.859741,247.374847 925.629700,252.236343 930.977051,254.422165 
	C936.220947,256.565704 941.983093,254.946548 944.927429,250.174957 
M496.025208,239.450546 
	C494.132446,244.494125 492.239716,249.537689 490.262604,254.806061 
	C495.717651,255.490021 493.497284,248.530807 499.043488,248.525497 
	C504.340790,248.520432 502.664429,255.819656 508.111572,254.499725 
	C506.033417,249.080658 504.164795,243.874634 502.005341,238.792175 
	C501.403656,237.376038 499.942017,236.325287 498.874847,235.106918 
	C497.972717,236.295227 497.070618,237.483551 496.025208,239.450546 
M975.876099,241.708328 
	C975.183472,240.031647 974.796326,238.093231 973.674683,236.784119 
	C973.076294,236.085571 970.228638,236.049454 970.061584,236.435364 
	C967.512085,242.324493 965.238037,248.332870 962.899719,254.313416 
	C963.431580,254.589981 963.963440,254.866531 964.495361,255.143097 
	C965.248596,254.253891 965.882935,253.213242 966.780945,252.508530 
	C968.411865,251.228775 970.248962,249.172318 971.908081,249.256317 
	C973.614990,249.342743 975.209595,251.601562 976.858398,252.903320 
	C977.767151,253.620743 978.686279,254.324921 979.600769,255.035049 
	C979.854187,254.710999 980.107666,254.386932 980.361084,254.062881 
	C978.919128,250.198166 977.477173,246.333450 975.876099,241.708328 
M425.377441,239.069305 
	C423.621857,244.182373 421.866272,249.295441 419.845306,255.181427 
	C424.718933,254.172714 423.999847,246.987213 428.984680,249.124390 
	C431.885437,250.368057 434.195251,252.989990 437.869385,255.845413 
	C435.515289,249.113678 433.761108,243.800980 431.758759,238.583496 
	C431.269592,237.308868 429.967041,236.346375 429.038483,235.240372 
	C427.961243,236.304962 426.883972,237.369537 425.377441,239.069305 
M802.280396,235.242691 
	C801.229065,235.821060 799.590515,236.150955 799.223267,237.018784 
	C797.105286,242.024170 795.242920,247.140732 793.420410,252.264603 
	C793.168274,252.973389 793.616150,253.931168 793.810120,255.251190 
	C794.835388,254.619919 795.529114,254.424820 795.835754,253.969223 
	C800.417969,247.158951 802.331055,247.087036 806.846191,253.488876 
	C807.282166,254.107010 808.340088,254.286484 809.109253,254.669571 
	C809.263916,253.799423 809.784912,252.789886 809.515259,252.081223 
	C807.413269,246.557434 805.159119,241.091568 802.280396,235.242691 
M768.729736,235.267014 
	C765.991760,235.267014 763.253723,235.267014 760.026367,235.267014 
	C760.026367,239.941498 760.024658,244.055771 760.026794,248.170029 
	C760.030212,254.975525 760.031250,254.975525 766.643677,255.012604 
	C772.489319,255.045364 774.899841,253.093582 775.887939,247.527466 
	C776.794556,242.420319 774.010803,237.312744 768.729736,235.267014 
M676.377319,239.069321 
	C674.621765,244.182373 672.866211,249.295441 670.845276,255.181656 
	C675.718811,254.172333 675.000000,246.987152 679.984863,249.124390 
	C682.885620,250.368103 685.195312,252.990097 688.869690,255.845856 
	C686.515442,249.113663 684.761169,243.800964 682.758728,238.583496 
	C682.269531,237.308853 680.967041,236.346359 680.038452,235.240372 
	C678.961182,236.304947 677.883911,237.369537 676.377319,239.069321 
M1048.108154,245.476700 
	C1047.649292,236.701309 1042.329346,233.384125 1032.355591,235.827896 
	C1032.355591,241.971390 1032.355591,248.161484 1032.355591,254.288437 
	C1040.679810,255.828812 1046.840332,256.225800 1048.108154,245.476700 
M999.029663,247.399399 
	C999.196045,249.870880 999.362488,252.342346 999.528870,254.813828 
	C1000.191467,254.797348 1000.854065,254.780884 1001.516663,254.764404 
	C1001.830139,251.884705 1002.143616,249.005005 1002.457092,246.125305 
	C1002.895081,246.007523 1003.333130,245.889755 1003.771179,245.771988 
	C1006.164429,249.001205 1008.557617,252.230423 1010.950867,255.459641 
	C1011.394226,255.147690 1011.837524,254.835739 1012.280823,254.523788 
	C1012.178528,253.749115 1012.251404,252.895721 1011.944641,252.212921 
	C1010.356384,248.677963 1008.210388,245.371887 1011.440002,241.370911 
	C1011.958435,240.728668 1010.149048,236.880219 1008.670593,236.242981 
	C1005.992004,235.088455 1002.752197,235.235748 999.029724,234.745071 
	C999.029724,239.243378 999.029724,242.841141 999.029663,247.399399 
M828.011108,242.123581 
	C829.188416,243.326584 830.258850,244.665070 831.569153,245.699615 
	C833.363159,247.116028 835.339417,248.301605 837.237549,249.586105 
	C837.034302,250.276352 836.831055,250.966583 836.627808,251.656830 
	C833.582825,251.656830 830.537903,251.656830 826.853088,251.656830 
	C828.262756,256.638031 832.285217,254.835098 834.904663,254.823441 
	C836.558472,254.816086 839.394775,253.038162 839.578796,251.751114 
	C839.868042,249.727448 838.723450,247.213348 837.499268,245.360718 
	C836.703369,244.156204 834.513428,243.966461 833.274231,242.931519 
	C832.286377,242.106430 831.791748,240.690781 831.078186,239.537262 
	C832.387878,238.859085 833.634827,237.937485 835.026855,237.578796 
	C836.165039,237.285522 837.476257,237.663773 838.710754,237.744308 
	C838.745300,237.083771 838.779846,236.423233 838.814392,235.762711 
	C836.055847,235.629135 833.059509,234.802017 830.632141,235.634369 
	C829.278198,236.098602 828.870300,239.321960 828.011108,242.123581 
M653.037720,253.931641 
	C653.405701,251.095032 653.456238,251.417267 649.901733,251.974548 
	C647.765198,252.309494 643.720825,251.891998 643.505859,251.052048 
	C642.662415,247.756454 642.225647,243.935364 643.145935,240.744415 
	C643.870117,238.233261 646.856995,236.639862 650.158813,238.092834 
	C651.227539,238.563126 652.485107,238.604370 653.656250,238.841873 
	C651.349670,235.015900 647.754456,234.037186 644.488525,235.578583 
	C642.207275,236.655258 640.259216,239.433716 639.245056,241.897736 
	C638.366028,244.033279 638.344788,247.047684 639.165039,249.210831 
	C640.007019,251.431534 642.006226,254.038452 644.088013,254.747757 
	C646.495544,255.568069 649.545898,254.501572 653.037720,253.931641 
M557.039734,249.776718 
	C557.300354,251.470047 557.560974,253.163376 558.013733,256.105255 
	C560.863647,248.184509 563.163513,241.792496 565.463379,235.400497 
	C565.070557,235.129669 564.677734,234.858841 564.284912,234.588013 
	C562.343018,237.205368 560.401123,239.822708 558.450684,242.451645 
	C555.500244,240.716583 556.357239,234.987900 550.772339,235.167648 
	C553.084473,240.276520 555.046387,244.611588 557.039734,249.776718 
M584.248108,235.040848 
	C583.677673,235.363144 583.107239,235.685440 581.800110,236.423935 
	C584.272400,236.864212 585.849121,237.145004 588.005859,237.529068 
	C588.005859,240.746170 587.744751,243.880951 588.083801,246.949417 
	C588.385864,249.683029 586.244629,253.664032 591.949097,255.194168 
	C591.949097,248.862000 591.949097,243.175720 591.949097,237.567368 
	C594.145813,237.123001 595.628845,236.823013 597.111816,236.523010 
	C597.094055,236.019730 597.076294,235.516434 597.058594,235.013138 
	C593.066406,235.013138 589.074280,235.013138 584.248108,235.040848 
M707.027405,252.178970 
	C708.573059,255.476547 712.851807,256.122955 717.779480,253.511917 
	C715.049011,253.136063 712.702637,252.813080 709.575806,252.382660 
	C709.575806,246.480331 709.575806,240.866928 709.575806,235.253525 
	C708.907288,235.233765 708.238831,235.214005 707.570312,235.194244 
	C706.371155,240.433929 707.293091,245.903091 707.027405,252.178970 
M536.342834,254.904480 
	C536.491577,254.831024 536.660645,254.781326 536.782532,254.676590 
	C536.879639,254.593155 536.919006,254.442535 536.984070,254.321747 
	C534.813538,253.598007 532.643066,252.874283 530.472168,252.151367 
	C528.750305,246.764359 531.725281,240.647827 527.807190,235.509903 
	C527.005859,239.252090 526.962585,242.952438 527.014343,246.651428 
	C527.145996,256.053925 525.651917,254.915909 536.342834,254.904480 
M656.495239,168.996490 
	C661.452576,168.996490 666.409973,168.996490 671.367310,168.996490 
	C671.354614,168.722198 671.341858,168.447891 671.329102,168.173599 
	C647.112061,168.173599 622.895081,168.173599 598.678040,168.173599 
	C598.678101,168.447891 598.678162,168.722198 598.678223,168.996490 
	C617.617859,168.996490 636.557434,168.996490 656.495239,168.996490 
M618.991211,243.550156 
	C618.991211,240.780380 618.991211,238.010590 618.991211,235.240814 
	C618.274963,235.261261 617.558655,235.281693 616.842407,235.302139 
	C616.842407,241.769699 616.842407,248.237259 616.842407,254.704819 
	C617.558655,254.722443 618.274963,254.740082 618.991211,254.757706 
	C618.991211,251.344437 618.991211,247.931168 618.991211,243.550156 
z"/>
<path fill="#002060" opacity="1.000000" stroke="none" 
	d="
M474.064606,47.978710 
	C491.594269,47.772163 507.884521,51.440182 522.121765,62.435326 
	C536.587341,73.606750 545.440125,88.283104 548.843628,105.942001 
	C553.149597,128.282837 552.344116,150.548172 544.042969,172.013733 
	C536.335510,191.944000 521.903992,204.973846 501.581146,211.507996 
	C489.416718,215.419098 476.896149,216.270065 464.217163,216.050781 
	C455.225922,215.895279 446.229797,216.036957 437.235931,216.012421 
	C428.605408,215.988892 426.991577,214.384888 426.991089,205.896988 
	C426.988159,156.763519 426.989410,107.630043 426.992828,58.496571 
	C426.992950,57.164883 426.864075,55.803493 427.090332,54.507450 
	C427.625427,51.442265 428.716064,48.714802 433.129059,48.015594 
	C447.331421,47.978733 460.697998,47.978722 474.064606,47.978710 
M443.025208,62.893402 
	C443.043732,108.945503 443.062286,154.997604 443.456482,201.827362 
	C453.269653,201.846771 463.082794,201.866180 473.753021,201.952286 
	C478.320923,201.296600 482.890991,200.655533 487.456360,199.982712 
	C507.871552,196.974014 521.816101,185.833252 528.696716,166.388931 
	C534.505615,149.973129 535.102722,133.018265 533.090393,115.815262 
	C530.952942,97.542816 523.144592,82.605370 508.138397,71.765648 
	C497.336060,63.962608 484.803009,62.091476 471.299774,61.284920 
	C465.562012,61.197388 459.822174,60.978889 454.087219,61.069466 
	C450.410767,61.127533 446.741547,61.641346 443.025208,62.893402 
z"/>
<path fill="#012060" opacity="1.000000" stroke="none" 
	d="
M953.991211,48.897259 
	C957.110046,46.288540 964.351868,46.195221 968.658691,49.365791 
	C969.008240,104.672180 969.035156,159.325195 969.062073,213.978195 
	C966.680725,218.728561 962.257507,216.431412 958.686218,216.836212 
	C957.344177,216.988312 955.877197,216.038162 954.247925,214.835907 
	C953.966675,202.734131 953.904785,191.386963 953.901428,179.571915 
	C953.967346,165.911179 954.011963,152.718109 953.931519,139.525818 
	C953.922302,138.007309 953.216797,136.493042 952.834106,134.976807 
	C925.541443,135.003677 898.248779,135.030563 870.086548,135.217377 
	C869.160217,161.587265 869.103394,187.797211 869.046509,214.007141 
	C866.724243,218.923355 862.230896,216.289474 858.706909,216.834045 
	C857.390747,217.037430 855.889648,216.043579 854.242798,214.844482 
	C854.003601,159.029404 853.994385,103.965485 853.985168,48.901558 
	C856.896790,45.946243 865.213562,46.211861 868.856079,50.174217 
	C869.061646,73.955856 869.122131,96.935135 869.380310,120.284760 
	C870.060974,120.760086 870.543884,120.956497 871.026917,120.956940 
	C897.253296,120.980782 923.479797,121.003639 949.705994,120.943939 
	C950.820923,120.941399 951.934082,120.158249 953.048035,119.738739 
	C953.048035,119.738739 952.977783,119.408340 953.285889,118.916779 
	C953.706055,117.278473 953.914001,116.131912 953.916077,114.984978 
	C953.955566,92.955765 953.970886,70.926506 953.991211,48.897259 
z"/>
<path fill="#E74C3C" opacity="1.000000" stroke="none" 
	d="
M292.927032,79.019768 
	C292.962585,131.850983 293.025330,184.682205 293.001892,237.513382 
	C292.998688,244.742264 288.724518,249.878357 282.656891,252.504471 
	C275.987061,255.391251 268.886139,255.279495 262.687805,250.209076 
	C257.713104,246.139603 255.897003,241.037552 255.916702,234.608246 
	C256.069458,184.775726 256.001373,134.942505 256.001587,85.109505 
	C256.001617,83.290596 256.001617,81.471687 256.001617,79.536896 
	C270.444489,91.978943 283.954590,87.447037 292.646423,79.077751 
	C292.994659,79.005203 292.927032,79.019768 292.927032,79.019768 
z"/>
<path fill="#2ECC71" opacity="1.000000" stroke="none" 
	d="
M181.996307,199.000000 
	C182.007996,216.326447 182.037521,233.152924 182.024307,249.979355 
	C182.016968,259.342255 173.923676,266.973969 164.035400,267.016693 
	C153.524414,267.062103 144.984863,259.814972 144.976883,250.566559 
	C144.931381,197.924026 144.954819,145.281433 144.954819,92.007355 
	C150.347427,97.112839 155.933517,100.189804 163.314438,100.111031 
	C170.640213,100.032829 176.042816,96.589912 181.996307,91.921478 
	C181.996307,127.787949 181.996307,163.143967 181.996307,199.000000 
z"/>
<path fill="#012160" opacity="1.000000" stroke="none" 
	d="
M797.360718,210.377258 
	C789.713989,215.461060 781.360107,216.941620 772.829529,217.958817 
	C756.905029,219.857697 742.243286,215.653854 727.769714,209.509415 
	C719.553040,206.021149 716.482239,197.057510 721.828369,188.918869 
	C724.023560,189.942429 726.450623,190.821777 728.620483,192.128296 
	C739.723633,198.813599 751.716187,203.841370 764.590881,203.652084 
	C778.042419,203.454346 791.588989,200.926208 798.895142,187.146317 
	C806.713135,172.401138 802.971619,157.133881 788.826233,148.075165 
	C780.343506,142.642792 770.988281,138.593063 762.240234,133.548935 
	C753.931458,128.758087 745.268982,124.262375 737.877075,118.263062 
	C720.219849,103.932434 718.954651,74.044769 735.338623,58.434143 
	C743.308716,50.840275 753.183594,46.605183 764.698059,45.691433 
	C777.766663,44.654354 789.859619,47.046608 801.637146,52.251312 
	C807.759705,54.956982 811.369507,59.221615 809.972656,66.295876 
	C809.616394,68.099846 808.935303,70.366966 807.615112,71.274277 
	C806.682007,71.915596 804.149170,71.029991 802.795776,70.128014 
	C794.677979,64.717766 786.052429,60.681652 776.206238,59.926598 
	C767.362915,59.248451 759.097412,60.475346 751.055725,65.117836 
	C739.653198,71.700554 738.306702,92.767296 745.073364,101.720985 
	C750.409241,108.781418 757.681091,112.846146 765.085999,116.837067 
	C776.625244,123.056183 788.935913,128.054153 799.797180,135.261124 
	C810.297913,142.228851 817.718079,152.082047 819.190491,165.719070 
	C820.713562,179.825150 816.835632,191.913971 807.882996,202.429230 
	C805.176697,205.607834 801.116882,207.634064 797.360718,210.377258 
z"/>
<path fill="#052463" opacity="1.000000" stroke="none" 
	d="
M292.986633,79.038841 
	C292.728943,77.878426 292.479248,76.684372 292.170532,75.208092 
	C278.706268,86.074089 265.696289,83.228561 256.856781,72.239838 
	C251.745056,79.089508 246.713226,85.815720 241.704483,92.559082 
	C240.815323,93.756165 240.166443,95.159622 239.158966,96.235985 
	C235.368469,100.285759 233.767288,103.681030 236.755005,109.866768 
	C242.047623,120.824585 232.276382,134.396271 219.862473,135.025131 
	C207.083954,135.672455 198.956268,129.756943 197.434952,117.152046 
	C196.941467,113.063210 199.472855,108.341721 201.460480,104.325218 
	C202.584061,102.054749 203.339630,100.722961 201.333084,98.777573 
	C196.427689,94.021713 191.629272,89.155647 186.772110,84.349800 
	C185.713120,83.301979 184.588562,82.320404 184.138840,81.904503 
	C179.613724,85.884178 175.819794,90.714104 170.854645,93.258598 
	C162.081100,97.754807 151.387375,94.661507 145.517685,86.674667 
	C143.143112,83.443596 141.719681,83.964088 139.284744,86.160789 
	C135.479218,89.594002 131.457977,92.787460 127.545853,96.103386 
	C125.017563,98.246368 123.149338,100.136368 123.829559,104.339119 
	C126.215698,119.081947 110.875008,128.176254 101.388916,126.886154 
	C94.325294,125.925507 87.763947,122.571419 84.956398,115.348511 
	C82.043709,107.855087 82.419174,100.553604 88.317711,94.135315 
	C94.185333,87.750664 101.150612,85.846855 109.337845,88.200203 
	C111.375046,88.785774 113.905319,89.378799 115.097481,90.861862 
	C118.837318,95.514229 121.829056,93.186806 125.030174,90.484299 
	C129.191437,86.971176 133.555969,83.668419 137.450531,79.881737 
	C139.625549,77.766937 141.899399,75.077423 142.614853,72.262169 
	C144.944397,63.095730 150.806320,57.752075 159.688477,56.392746 
	C167.497025,55.197723 174.823196,57.997738 179.026794,64.822784 
	C185.880692,75.950859 196.022568,83.860367 204.755707,93.147224 
	C206.112518,94.590050 207.467148,96.034904 208.859070,96.327446 
	C215.550308,96.857651 222.241531,97.387863 229.923294,97.996567 
	C237.285980,88.036476 245.472855,77.118156 253.430817,66.035469 
	C254.696701,64.272537 255.204132,61.818840 255.598862,59.601990 
	C257.249878,50.329758 265.125305,44.108677 273.811981,43.063473 
	C281.171570,42.177940 291.065063,47.658875 294.325806,55.228886 
	C295.869202,58.812004 295.270355,63.298489 295.769714,67.360008 
	C295.977722,69.051643 296.021332,71.100555 296.988037,72.307518 
	C303.591248,80.551735 310.355011,88.671402 317.257233,96.667038 
	C318.137787,97.687088 320.142731,98.250526 321.588623,98.184875 
	C330.818390,97.765823 337.864716,101.264496 342.742889,109.172356 
	C346.229279,114.823952 345.914032,122.527016 341.805267,128.364182 
	C337.253845,134.830215 328.389252,138.092041 320.766907,136.829681 
	C304.415344,134.121597 298.835388,114.864105 310.086792,104.224319 
	C311.088440,103.277115 311.548920,100.157166 310.796417,99.211296 
	C305.287964,92.287506 299.405426,85.661293 293.283997,78.980484 
	C292.927032,79.019768 292.994659,79.005203 292.986633,79.038841 
M172.912277,66.596573 
	C169.648956,65.281075 166.480667,63.255161 163.101837,62.803207 
	C156.758408,61.954697 149.824295,66.626778 148.715561,72.397293 
	C147.686356,77.753975 149.231705,83.850967 155.925354,87.528473 
	C161.820938,90.767525 169.972382,88.097595 173.615295,84.106491 
	C177.373795,79.988785 179.146805,75.630066 172.912277,66.596573 
M267.836090,73.845062 
	C275.775116,77.842819 286.068420,74.858192 288.912018,67.733902 
	C291.437927,61.405560 288.604675,54.468616 281.966064,50.727394 
	C276.889069,47.866226 267.231842,50.603344 263.779236,55.382137 
	C259.675232,61.062519 261.498138,70.295059 267.836090,73.845062 
M108.921776,94.174637 
	C107.601334,94.068642 106.280052,93.972107 104.960587,93.855080 
	C97.557938,93.198486 90.820236,97.631905 89.600853,103.966888 
	C88.294540,110.753563 92.180618,117.319176 99.325699,119.527443 
	C105.261543,121.361969 110.564911,118.999290 114.695206,115.016960 
	C118.391060,111.453491 119.260422,106.436646 116.604561,101.869102 
	C114.944725,99.014511 112.006065,96.903511 108.921776,94.174637 
M230.813354,111.011497 
	C228.084671,105.863922 224.093246,102.732330 218.007721,102.591530 
	C211.829819,102.448593 205.697479,106.421745 203.790512,112.037064 
	C202.317383,116.374977 204.382645,122.741440 208.188812,125.595284 
	C214.493301,130.322357 220.694122,130.219421 227.202057,125.279633 
	C231.605545,121.937218 232.874786,117.335655 230.813354,111.011497 
M313.727509,126.716225 
	C319.210419,131.086685 324.924408,132.548065 331.559265,128.979248 
	C336.102814,126.535316 339.392334,121.918037 338.979645,117.268257 
	C338.549042,112.416359 333.650482,106.176292 329.432800,105.106895 
	C323.506378,103.604248 316.116821,105.632217 313.201904,109.723526 
	C309.321838,115.169472 309.834290,120.689331 313.727509,126.716225 
z"/>
<path fill="#3498DB" opacity="1.000000" stroke="none" 
	d="
M306.004303,209.000000 
	C306.004303,183.532516 306.004303,158.565033 306.004303,133.149124 
	C311.345184,138.031265 316.868713,141.160843 324.227203,141.129990 
	C331.662201,141.098801 337.123657,137.474884 342.995697,132.994766 
	C342.995697,143.796814 342.993469,154.060928 342.996155,164.325058 
	C343.001953,186.470993 342.781128,208.620544 343.131653,230.761047 
	C343.269684,239.477982 333.709503,249.082901 323.323914,248.184586 
	C313.939331,247.372849 305.948181,239.943771 305.983490,230.480347 
	C306.009583,223.486969 305.998688,216.493454 306.004303,209.000000 
z"/>
<path fill="#F39C13" opacity="1.000000" stroke="none" 
	d="
M235.011185,198.698883 
	C235.358215,207.793610 226.360916,217.317276 213.983353,216.107376 
	C205.472229,215.275406 197.984360,207.300980 197.989929,198.167343 
	C198.003036,176.693802 197.994125,155.220261 197.994125,133.261337 
	C203.377106,137.982056 208.859451,141.196106 216.157074,141.129242 
	C223.547318,141.061493 229.114517,137.657211 235.006287,132.852585 
	C235.006287,155.105240 235.006287,176.670364 235.011185,198.698883 
z"/>
<path fill="#CCCCCC" opacity="1.000000" stroke="none" 
	d="
M84.003212,149.000015 
	C84.003212,140.857925 84.003212,133.215820 84.003212,125.021729 
	C89.540176,129.572174 95.095215,133.056702 102.301567,133.056351 
	C109.554558,133.056000 115.318588,130.028976 120.996788,124.677322 
	C120.996788,133.650406 120.996681,141.875244 120.996811,150.100082 
	C120.997017,163.246536 121.064423,176.393448 120.975342,189.539291 
	C120.910316,199.134155 114.741104,206.650787 105.687721,207.968704 
	C97.579185,209.149063 87.742027,204.809113 85.843430,197.341690 
	C85.097572,194.408142 84.129906,191.416351 84.085724,188.438858 
	C83.893143,175.461700 84.003120,162.480026 84.003212,149.000015 
z"/>
<path fill="#012161" opacity="1.000000" stroke="none" 
	d="
M1017.007812,84.000000 
	C1017.008118,73.346039 1017.111450,63.190548 1016.960388,53.038841 
	C1016.895752,48.692844 1018.222168,46.332722 1022.999023,46.973980 
	C1024.634277,47.193508 1026.324097,47.038784 1027.988037,47.008030 
	C1031.561279,46.941986 1033.143188,48.760300 1033.033203,52.238873 
	C1033.006958,53.070286 1033.033081,53.903316 1033.033081,54.735607 
	C1033.033203,106.337700 1033.040649,157.939789 1033.010864,209.541870 
	C1033.009399,212.069611 1033.967041,215.735718 1030.301514,216.066299 
	C1026.215332,216.434799 1021.967896,215.694687 1017.902283,214.879959 
	C1017.292175,214.757690 1017.045654,211.598129 1017.043701,209.843124 
	C1016.997498,168.062134 1017.007812,126.281059 1017.007812,84.000000 
z"/>
<path fill="#002060" opacity="1.000000" stroke="none" 
	d="
M377.994141,212.000000 
	C377.994110,227.483597 378.046539,242.467606 377.934631,257.450348 
	C377.918762,259.571503 379.381073,262.891479 375.063446,262.958466 
	C370.754272,263.025391 372.054230,259.740936 372.052429,257.577576 
	C371.995758,189.984940 371.992249,122.392235 372.065887,54.799633 
	C372.068329,52.557457 370.498688,48.910877 375.185303,49.057579 
	C379.483002,49.192108 377.925842,52.583263 377.929169,54.671658 
	C378.011810,106.947670 377.994110,159.223846 377.994141,212.000000 
z"/>
<path fill="#052563" opacity="1.000000" stroke="none" 
	d="
M908.634705,251.606995 
	C906.221252,254.644836 897.005066,256.429077 896.710144,254.412186 
	C895.804504,248.218689 896.457092,241.797333 896.503906,235.464554 
	C899.542236,235.754105 902.874329,235.406631 905.489929,236.612808 
	C906.723145,237.181519 906.592957,240.729630 907.059692,242.932144 
	C907.646118,245.699997 908.211060,248.472412 908.634705,251.606995 
M900.417603,252.860031 
	C902.265503,252.209473 904.113403,251.558914 905.961304,250.908371 
	C905.999329,250.401505 906.037415,249.894638 906.075439,249.387787 
	C904.094482,248.138809 902.113586,246.889832 900.132629,245.640854 
	C899.725098,245.949219 899.317505,246.257584 898.909912,246.565948 
	C899.169373,248.568924 899.428894,250.571899 900.417603,252.860031 
M899.046082,242.118652 
	C901.668640,245.797958 903.018982,242.618652 905.584351,240.856659 
	C903.363281,239.327438 901.659119,238.154053 899.355042,236.567673 
	C899.189331,238.809479 899.095581,240.077423 899.046082,242.118652 
z"/>
<path fill="#002060" opacity="1.000000" stroke="none" 
	d="
M871.012573,238.258957 
	C871.553040,236.970795 872.088013,236.108475 872.622925,235.246155 
	C873.376465,235.988953 874.751526,236.706299 874.783203,237.478653 
	C874.993408,242.614456 874.981140,247.763702 874.851379,252.903778 
	C874.834839,253.557571 873.715637,254.183502 873.107300,254.822311 
	C872.422180,254.089600 871.424927,253.462509 871.132080,252.597046 
	C870.777771,251.549850 870.923401,250.292648 871.022461,249.140915 
	C871.266296,246.305984 870.399475,244.929825 867.189209,244.906250 
	C863.889832,244.882004 862.613647,246.054672 862.977478,249.262329 
	C863.088867,250.244690 863.259705,251.371078 862.899414,252.216858 
	C862.477478,253.207443 861.505249,253.963623 860.771729,254.821472 
	C860.191833,253.976929 859.132996,253.145340 859.109741,252.285706 
	C858.958435,246.694092 859.032043,241.096359 859.032043,235.302460 
	C864.951965,235.483505 861.802124,240.308533 863.953064,242.627289 
	C866.683228,242.390610 871.254272,245.493729 871.012573,238.258957 
z"/>
<path fill="#3C5485" opacity="1.000000" stroke="none" 
	d="
M853.624268,49.146606 
	C853.994385,103.965485 854.003601,159.029404 853.992676,214.564331 
	C853.650269,213.834457 853.047058,212.633804 853.046082,211.432663 
	C853.001648,158.074890 853.009399,104.717079 853.023010,51.359272 
	C853.023193,50.703377 853.179810,50.047523 853.624268,49.146606 
z"/>
<path fill="#B9C2D3" opacity="1.000000" stroke="none" 
	d="
M969.450562,213.784027 
	C969.035156,159.325195 969.008240,104.672180 968.999084,49.559334 
	C969.343567,50.224468 969.955261,51.349194 969.956238,52.474442 
	C970.001526,105.684700 969.994080,158.895020 969.985718,212.105316 
	C969.985596,212.600174 969.890076,213.095032 969.450562,213.784027 
z"/>
<path fill="#0C2A67" opacity="1.000000" stroke="none" 
	d="
M944.740723,250.531616 
	C941.983093,254.946548 936.220947,256.565704 930.977051,254.422165 
	C925.629700,252.236343 926.859741,247.374847 927.176575,243.291092 
	C927.549561,238.484253 931.299744,235.127106 935.462036,235.023987 
	C941.261108,234.880310 944.830872,237.395370 945.667236,242.898926 
	C946.021912,245.232895 945.209412,247.744232 944.740723,250.531616 
M933.007874,238.558762 
	C929.220459,243.489258 929.046021,249.243286 932.666626,251.734024 
	C935.362671,253.588699 937.958679,253.188080 940.294189,251.033722 
	C943.626526,247.959900 943.605713,244.659286 941.350891,240.822678 
	C939.405029,237.511688 937.045837,236.626770 933.007874,238.558762 
z"/>
<path fill="#0C2A67" opacity="1.000000" stroke="none" 
	d="
M496.096863,239.061218 
	C497.070618,237.483551 497.972717,236.295227 498.874847,235.106918 
	C499.942017,236.325287 501.403656,237.376038 502.005341,238.792175 
	C504.164795,243.874634 506.033417,249.080658 508.111572,254.499725 
	C502.664429,255.819656 504.340790,248.520432 499.043488,248.525497 
	C493.497284,248.530807 495.717651,255.490021 490.262604,254.806061 
	C492.239716,249.537689 494.132446,244.494125 496.096863,239.061218 
z"/>
<path fill="#062664" opacity="1.000000" stroke="none" 
	d="
M975.955688,242.088531 
	C977.477173,246.333450 978.919128,250.198166 980.361084,254.062881 
	C980.107666,254.386932 979.854187,254.710999 979.600769,255.035049 
	C978.686279,254.324921 977.767151,253.620743 976.858398,252.903320 
	C975.209595,251.601562 973.614990,249.342743 971.908081,249.256317 
	C970.248962,249.172318 968.411865,251.228775 966.780945,252.508530 
	C965.882935,253.213242 965.248596,254.253891 964.495361,255.143097 
	C963.963440,254.866531 963.431580,254.589981 962.899719,254.313416 
	C965.238037,248.332870 967.512085,242.324493 970.061584,236.435364 
	C970.228638,236.049454 973.076294,236.085571 973.674683,236.784119 
	C974.796326,238.093231 975.183472,240.031647 975.955688,242.088531 
z"/>
<path fill="#062664" opacity="1.000000" stroke="none" 
	d="
M425.592102,238.751709 
	C426.883972,237.369537 427.961243,236.304962 429.038483,235.240356 
	C429.967041,236.346375 431.269592,237.308868 431.758759,238.583496 
	C433.761108,243.800980 435.515289,249.113678 437.869385,255.845413 
	C434.195251,252.989990 431.885437,250.368057 428.984680,249.124390 
	C423.999847,246.987213 424.718933,254.172714 419.845306,255.181427 
	C421.866272,249.295441 423.621857,244.182373 425.592102,238.751709 
z"/>
<path fill="#082765" opacity="1.000000" stroke="none" 
	d="
M802.616211,235.425232 
	C805.159119,241.091568 807.413269,246.557434 809.515259,252.081223 
	C809.784912,252.789886 809.263916,253.799423 809.109253,254.669571 
	C808.340088,254.286484 807.282166,254.107010 806.846191,253.488876 
	C802.331055,247.087036 800.417969,247.158951 795.835754,253.969223 
	C795.529114,254.424820 794.835388,254.619919 793.810120,255.251190 
	C793.616150,253.931168 793.168274,252.973389 793.420410,252.264603 
	C795.242920,247.140732 797.105286,242.024170 799.223267,237.018784 
	C799.590515,236.150955 801.229065,235.821060 802.616211,235.425232 
z"/>
<path fill="#082765" opacity="1.000000" stroke="none" 
	d="
M769.086426,235.484680 
	C774.010803,237.312744 776.794556,242.420319 775.887939,247.527466 
	C774.899841,253.093582 772.489319,255.045364 766.643677,255.012604 
	C760.031250,254.975525 760.030212,254.975525 760.026794,248.170029 
	C760.024658,244.055771 760.026367,239.941498 760.026367,235.267014 
	C763.253723,235.267014 765.991760,235.267014 769.086426,235.484680 
M762.979492,244.553467 
	C762.979492,247.173645 762.979492,249.793808 762.979492,254.256378 
	C766.609131,252.366043 769.841370,251.674042 771.181702,249.698425 
	C772.454956,247.821671 772.557800,244.303833 771.723572,242.043381 
	C770.480225,238.674408 767.393066,236.904724 762.979431,237.526672 
	C762.979431,239.675766 762.979431,241.645767 762.979492,244.553467 
z"/>
<path fill="#062664" opacity="1.000000" stroke="none" 
	d="
M676.591980,238.751709 
	C677.883911,237.369537 678.961182,236.304947 680.038452,235.240372 
	C680.967041,236.346359 682.269531,237.308853 682.758728,238.583496 
	C684.761169,243.800964 686.515442,249.113663 688.869690,255.845856 
	C685.195312,252.990097 682.885620,250.368103 679.984863,249.124390 
	C675.000000,246.987152 675.718811,254.172333 670.845276,255.181656 
	C672.866211,249.295441 674.621765,244.182373 676.591980,238.751709 
z"/>
<path fill="#092866" opacity="1.000000" stroke="none" 
	d="
M1048.099365,245.898132 
	C1046.840332,256.225800 1040.679810,255.828812 1032.355591,254.288437 
	C1032.355591,248.161484 1032.355591,241.971390 1032.355591,235.827896 
	C1042.329346,233.384125 1047.649292,236.701309 1048.099365,245.898132 
M1034.975464,244.544708 
	C1034.987549,246.529709 1034.687988,248.589371 1035.138306,250.469360 
	C1035.376831,251.464996 1036.890869,252.817825 1037.877808,252.859756 
	C1042.871582,253.071869 1047.215820,246.513474 1044.434082,242.459137 
	C1042.780884,240.049576 1039.361328,238.851913 1036.735840,237.109344 
	C1036.149048,239.273605 1035.562134,241.437851 1034.975464,244.544708 
z"/>
<path fill="#092866" opacity="1.000000" stroke="none" 
	d="
M999.029663,246.919159 
	C999.029724,242.841141 999.029724,239.243378 999.029724,234.745071 
	C1002.752197,235.235748 1005.992004,235.088455 1008.670593,236.242981 
	C1010.149048,236.880219 1011.958435,240.728668 1011.440002,241.370911 
	C1008.210388,245.371887 1010.356384,248.677963 1011.944641,252.212921 
	C1012.251404,252.895721 1012.178528,253.749115 1012.280823,254.523788 
	C1011.837524,254.835739 1011.394226,255.147690 1010.950867,255.459641 
	C1008.557617,252.230423 1006.164429,249.001205 1003.771179,245.771988 
	C1003.333130,245.889755 1002.895081,246.007523 1002.457092,246.125305 
	C1002.143616,249.005005 1001.830139,251.884705 1001.516663,254.764404 
	C1000.854065,254.780884 1000.191467,254.797348 999.528870,254.813828 
	C999.362488,252.342346 999.196045,249.870880 999.029663,246.919159 
M1004.133423,237.186142 
	C1003.476990,238.995499 1002.820557,240.804855 1002.164062,242.614182 
	C1003.421631,243.027664 1004.713196,243.821472 1005.924011,243.713013 
	C1006.658752,243.647217 1008.000488,241.854843 1007.800354,241.412811 
	C1007.138367,239.950790 1005.899841,238.749832 1004.133423,237.186142 
z"/>
<path fill="#0F2D69" opacity="1.000000" stroke="none" 
	d="
M828.023560,241.712769 
	C828.870300,239.321960 829.278198,236.098602 830.632141,235.634369 
	C833.059509,234.802017 836.055847,235.629135 838.814392,235.762711 
	C838.779846,236.423233 838.745300,237.083771 838.710754,237.744308 
	C837.476257,237.663773 836.165039,237.285522 835.026855,237.578796 
	C833.634827,237.937485 832.387878,238.859085 831.078125,239.537262 
	C831.791748,240.690781 832.286377,242.106430 833.274231,242.931519 
	C834.513428,243.966461 836.703369,244.156204 837.499268,245.360718 
	C838.723450,247.213348 839.868042,249.727448 839.578796,251.751114 
	C839.394775,253.038162 836.558472,254.816086 834.904663,254.823441 
	C832.285217,254.835098 828.262756,256.638031 826.853088,251.656830 
	C830.537903,251.656830 833.582825,251.656830 836.627808,251.656830 
	C836.831055,250.966583 837.034302,250.276352 837.237549,249.586105 
	C835.339417,248.301605 833.363159,247.116028 831.569153,245.699615 
	C830.258850,244.665070 829.188416,243.326584 828.023560,241.712769 
z"/>
<path fill="#0D2B68" opacity="1.000000" stroke="none" 
	d="
M652.677490,254.092957 
	C649.545898,254.501572 646.495544,255.568069 644.088013,254.747757 
	C642.006226,254.038452 640.007019,251.431534 639.165039,249.210831 
	C638.344788,247.047684 638.366028,244.033279 639.245056,241.897736 
	C640.259216,239.433716 642.207275,236.655258 644.488525,235.578583 
	C647.754456,234.037186 651.349670,235.015900 653.656250,238.841873 
	C652.485107,238.604370 651.227539,238.563126 650.158813,238.092834 
	C646.856995,236.639862 643.870117,238.233261 643.145935,240.744415 
	C642.225647,243.935364 642.662415,247.756454 643.505859,251.052048 
	C643.720825,251.891998 647.765198,252.309494 649.901733,251.974548 
	C653.456238,251.417267 653.405701,251.095032 652.677490,254.092957 
z"/>
<path fill="#0F2D69" opacity="1.000000" stroke="none" 
	d="
M557.024048,249.361694 
	C555.046387,244.611588 553.084473,240.276520 550.772339,235.167648 
	C556.357239,234.987900 555.500244,240.716583 558.450684,242.451645 
	C560.401123,239.822708 562.343018,237.205368 564.284912,234.588013 
	C564.677734,234.858841 565.070557,235.129669 565.463379,235.400497 
	C563.163513,241.792496 560.863647,248.184509 558.013733,256.105255 
	C557.560974,253.163376 557.300354,251.470047 557.024048,249.361694 
z"/>
<path fill="#002060" opacity="1.000000" stroke="none" 
	d="
M584.665100,235.026993 
	C589.074280,235.013138 593.066406,235.013138 597.058594,235.013138 
	C597.076294,235.516434 597.094055,236.019730 597.111816,236.523010 
	C595.628845,236.823013 594.145813,237.123001 591.949097,237.567368 
	C591.949097,243.175720 591.949097,248.862000 591.949097,255.194168 
	C586.244629,253.664032 588.385864,249.683029 588.083801,246.949417 
	C587.744751,243.880951 588.005859,240.746170 588.005859,237.529068 
	C585.849121,237.145004 584.272400,236.864212 581.800110,236.423935 
	C583.107239,235.685440 583.677673,235.363144 584.665100,235.026993 
z"/>
<path fill="#8B9AB7" opacity="1.000000" stroke="none" 
	d="
M952.587036,119.850632 
	C951.934082,120.158249 950.820923,120.941399 949.705994,120.943939 
	C923.479797,121.003639 897.253296,120.980782 871.026917,120.956940 
	C870.543884,120.956497 870.060974,120.760086 869.592407,120.267181 
	C869.606812,119.879257 870.020630,119.978775 870.020630,119.978775 
	C897.389099,119.973358 924.757629,119.967934 952.587036,119.850632 
z"/>
<path fill="#D9DEE7" opacity="1.000000" stroke="none" 
	d="
M869.439941,213.815979 
	C869.103394,187.797211 869.160217,161.587265 869.619324,135.206085 
	C869.958862,161.231491 869.896118,187.428146 869.439941,213.815979 
z"/>
<path fill="#012161" opacity="1.000000" stroke="none" 
	d="
M707.019531,251.710526 
	C707.293091,245.903091 706.371155,240.433929 707.570312,235.194244 
	C708.238831,235.214005 708.907288,235.233765 709.575806,235.253525 
	C709.575806,240.866928 709.575806,246.480331 709.575806,252.382660 
	C712.702637,252.813080 715.049011,253.136063 717.779480,253.511917 
	C712.851807,256.122955 708.573059,255.476547 707.019531,251.710526 
z"/>
<path fill="#002060" opacity="1.000000" stroke="none" 
	d="
M535.960449,254.941437 
	C525.651917,254.915909 527.145996,256.053925 527.014343,246.651428 
	C526.962585,242.952438 527.005859,239.252090 527.807190,235.509903 
	C531.725281,240.647827 528.750305,246.764359 530.472351,252.150955 
	C532.643066,252.874283 534.813538,253.598007 536.984070,254.321747 
	C536.919006,254.442535 536.879639,254.593155 536.782532,254.676590 
	C536.660645,254.781326 536.491577,254.831024 535.960449,254.941437 
z"/>
<path fill="#8191B0" opacity="1.000000" stroke="none" 
	d="
M655.996155,168.996490 
	C636.557434,168.996490 617.617859,168.996490 598.678223,168.996490 
	C598.678162,168.722198 598.678101,168.447891 598.678040,168.173599 
	C622.895081,168.173599 647.112061,168.173599 671.329102,168.173599 
	C671.341858,168.447891 671.354614,168.722198 671.367310,168.996490 
	C666.409973,168.996490 661.452576,168.996490 655.996155,168.996490 
z"/>
<path fill="#546994" opacity="1.000000" stroke="none" 
	d="
M953.611694,49.120850 
	C953.970886,70.926506 953.955566,92.955765 953.916077,114.984978 
	C953.914001,116.131912 953.706055,117.278473 953.324280,118.752304 
	C953.113831,95.834419 953.173035,72.589424 953.611694,49.120850 
z"/>
<path fill="#D3D9E4" opacity="1.000000" stroke="none" 
	d="
M870.009888,119.512238 
	C870.020630,119.978775 869.606812,119.879257 869.394714,119.896835 
	C869.122131,96.935135 869.061646,73.955856 869.038574,50.510387 
	C869.384705,51.695374 869.957397,53.345810 869.961975,54.997829 
	C870.021484,76.346992 870.000122,97.696381 870.009888,119.512238 
z"/>
<path fill="#012161" opacity="1.000000" stroke="none" 
	d="
M618.991211,244.034027 
	C618.991211,247.931168 618.991211,251.344437 618.991211,254.757706 
	C618.274963,254.740082 617.558655,254.722443 616.842407,254.704819 
	C616.842407,248.237259 616.842407,241.769699 616.842407,235.302139 
	C617.558655,235.281693 618.274963,235.261261 618.991211,235.240814 
	C618.991211,238.010590 618.991211,240.780380 618.991211,244.034027 
z"/>
<path fill="#455C8B" opacity="1.000000" stroke="none" 
	d="
M952.904419,135.443481 
	C953.216797,136.493042 953.922302,138.007309 953.931519,139.525818 
	C954.011963,152.718109 953.967346,165.911179 953.734436,179.565521 
	C953.508911,180.027039 953.173523,180.022690 953.173523,180.022690 
	C953.107239,165.318497 953.041016,150.614319 952.904419,135.443481 
z"/>
<path fill="#4E6491" opacity="1.000000" stroke="none" 
	d="
M473.837402,47.605789 
	C460.697998,47.978722 447.331421,47.978733 433.498535,47.965130 
	C433.572205,47.651489 434.112396,47.089344 434.652161,47.089813 
	C447.638184,47.101017 460.624176,47.172390 473.837402,47.605789 
z"/>
<path fill="#566B96" opacity="1.000000" stroke="none" 
	d="
M953.120239,180.487152 
	C953.173523,180.022690 953.508911,180.027039 953.675903,180.033417 
	C953.904785,191.386963 953.966675,202.734131 953.997009,214.550812 
	C953.639832,213.687149 953.039673,212.355438 953.032471,211.020523 
	C952.978271,200.997910 953.040955,190.974655 953.120239,180.487152 
z"/>
<path fill="#000000" opacity="1.000000" stroke="none" 
	d="
M471.873871,61.869366 
	C484.803009,62.091476 497.336060,63.962608 508.138397,71.765648 
	C523.144592,82.605370 530.952942,97.542816 533.090393,115.815262 
	C535.102722,133.018265 534.505615,149.973129 528.696716,166.388931 
	C521.816101,185.833252 507.871552,196.974014 487.456360,199.982712 
	C482.890991,200.655533 478.320923,201.296600 473.107300,201.556610 
	C462.668030,201.123856 452.874420,201.086777 443.080841,201.049698 
	C443.062286,154.997604 443.043732,108.945503 443.508972,62.432327 
	C453.286438,61.937294 462.580170,61.903332 471.873871,61.869366 
z"/>
<path fill="#CFD5E1" opacity="1.000000" stroke="none" 
	d="
M443.268677,201.438538 
	C452.874420,201.086777 462.668030,201.123856 472.678772,201.523254 
	C463.082794,201.866180 453.269653,201.846771 443.268677,201.438538 
z"/>
<path fill="#66799F" opacity="1.000000" stroke="none" 
	d="
M471.586823,61.577141 
	C462.580170,61.903332 453.286438,61.937294 443.530884,61.961056 
	C446.741547,61.641346 450.410767,61.127533 454.087219,61.069466 
	C459.822174,60.978889 465.562012,61.197388 471.586823,61.577141 
z"/>
<path fill="#000000" opacity="1.000000" stroke="none" 
	d="
M173.176834,66.863220 
	C179.146805,75.630066 177.373795,79.988785 173.615295,84.106491 
	C169.972382,88.097595 161.820938,90.767525 155.925354,87.528473 
	C149.231705,83.850967 147.686356,77.753975 148.715561,72.397293 
	C149.824295,66.626778 156.758408,61.954697 163.101837,62.803207 
	C166.480667,63.255161 169.648956,65.281075 173.176834,66.863220 
z"/>
<path fill="#000000" opacity="1.000000" stroke="none" 
	d="
M267.502991,73.655182 
	C261.498138,70.295059 259.675232,61.062519 263.779236,55.382137 
	C267.231842,50.603344 276.889069,47.866226 281.966064,50.727394 
	C288.604675,54.468616 291.437927,61.405560 288.912018,67.733902 
	C286.068420,74.858192 275.775116,77.842819 267.502991,73.655182 
z"/>
<path fill="#000000" opacity="1.000000" stroke="none" 
	d="
M109.281509,94.316742 
	C112.006065,96.903511 114.944725,99.014511 116.604561,101.869102 
	C119.260422,106.436646 118.391060,111.453491 114.695206,115.016960 
	C110.564911,118.999290 105.261543,121.361969 99.325699,119.527443 
	C92.180618,117.319176 88.294540,110.753563 89.600853,103.966888 
	C90.820236,97.631905 97.557938,93.198486 104.960587,93.855080 
	C106.280052,93.972107 107.601334,94.068642 109.281509,94.316742 
z"/>
<path fill="#000000" opacity="1.000000" stroke="none" 
	d="
M230.868393,111.399734 
	C232.874786,117.335655 231.605545,121.937218 227.202057,125.279633 
	C220.694122,130.219421 214.493301,130.322357 208.188812,125.595284 
	C204.382645,122.741440 202.317383,116.374977 203.790512,112.037064 
	C205.697479,106.421745 211.829819,102.448593 218.007721,102.591530 
	C224.093246,102.732330 228.084671,105.863922 230.868393,111.399734 
z"/>
<path fill="#000000" opacity="1.000000" stroke="none" 
	d="
M313.474182,126.441719 
	C309.834290,120.689331 309.321838,115.169472 313.201904,109.723526 
	C316.116821,105.632217 323.506378,103.604248 329.432800,105.106895 
	C333.650482,106.176292 338.549042,112.416359 338.979645,117.268257 
	C339.392334,121.918037 336.102814,126.535316 331.559265,128.979248 
	C324.924408,132.548065 319.210419,131.086685 313.474182,126.441719 
z"/>
<path fill="#000000" opacity="1.000000" stroke="none" 
	d="
M900.052979,252.717438 
	C899.428894,250.571899 899.169373,248.568924 898.909912,246.565948 
	C899.317505,246.257584 899.725098,245.949219 900.132629,245.640854 
	C902.113586,246.889832 904.094482,248.138809 906.075439,249.387787 
	C906.037415,249.894638 905.999329,250.401505 905.961304,250.908371 
	C904.113403,251.558914 902.265503,252.209473 900.052979,252.717438 
z"/>
<path fill="#000000" opacity="1.000000" stroke="none" 
	d="
M899.023926,241.732010 
	C899.095581,240.077423 899.189331,238.809479 899.355042,236.567673 
	C901.659119,238.154053 903.363281,239.327438 905.584351,240.856659 
	C903.018982,242.618652 901.668640,245.797958 899.023926,241.732010 
z"/>
<path fill="#000000" opacity="1.000000" stroke="none" 
	d="
M933.321289,238.348633 
	C937.045837,236.626770 939.405029,237.511688 941.350891,240.822678 
	C943.605713,244.659286 943.626526,247.959900 940.294189,251.033722 
	C937.958679,253.188080 935.362671,253.588699 932.666626,251.734024 
	C929.046021,249.243286 929.220459,243.489258 933.321289,238.348633 
z"/>
<path fill="#000000" opacity="1.000000" stroke="none" 
	d="
M762.979492,244.084625 
	C762.979431,241.645767 762.979431,239.675766 762.979431,237.526672 
	C767.393066,236.904724 770.480225,238.674408 771.723572,242.043381 
	C772.557800,244.303833 772.454956,247.821671 771.181702,249.698425 
	C769.841370,251.674042 766.609131,252.366043 762.979492,254.256378 
	C762.979492,249.793808 762.979492,247.173645 762.979492,244.084625 
z"/>
<path fill="#000000" opacity="1.000000" stroke="none" 
	d="
M1034.975342,244.073410 
	C1035.562134,241.437851 1036.149048,239.273605 1036.735840,237.109344 
	C1039.361328,238.851913 1042.780884,240.049576 1044.434082,242.459137 
	C1047.215820,246.513474 1042.871582,253.071869 1037.877808,252.859756 
	C1036.890869,252.817825 1035.376831,251.464996 1035.138306,250.469360 
	C1034.687988,248.589371 1034.987549,246.529709 1034.975342,244.073410 
z"/>
<path fill="#000000" opacity="1.000000" stroke="none" 
	d="
M1004.507996,237.317429 
	C1005.899841,238.749832 1007.138367,239.950790 1007.800354,241.412811 
	C1008.000488,241.854843 1006.658752,243.647217 1005.924011,243.713013 
	C1004.713196,243.821472 1003.421631,243.027664 1002.164062,242.614197 
	C1002.820557,240.804855 1003.476990,238.995499 1004.507996,237.317429 
z"/>
</svg>